<svg width="25" height="22" xmlns="http://www.w3.org/2000/svg">
    <g>
        <g id="svg_2">
            <g fill="none" fill-rule="evenodd" id="svg_1" stroke="null">
                <rect fill="#102131" stroke-width="0" stroke-opacity="null" fill-opacity="0" x="0" y="0" width="25" height="22" id="svg_4" stroke="null"/>
                <path stroke="null" fill="#6E6E6E" d="m10.076763,17.95718l2.441299,0l0,-6.95718l3.661949,0l0,-1.73929l-3.661949,0c-0.007616,-1.11021 -0.01196,-1.68997 -0.013032,-1.7393c-0.018575,-0.86371 0.337486,-1.61264 1.068194,-1.7877c1.189963,-0.2851 2.774872,0.08519 3.070269,0.15998l0.721042,-1.45772c-0.184855,-0.04732 -1.292179,-0.39315 -2.865593,-0.39315c-1.573426,0 -2.428198,0.1068 -3.245738,0.67622c-0.773309,0.53863 -1.137032,1.44598 -1.173391,2.80237c-0.002096,0.07757 -0.003098,1.6571 -0.003051,1.7393c0.000023,0.03165 -0.813755,0.03165 -2.441299,0l0,1.69059l2.441299,0l0,7.00588z" id="svg_3" stroke-width="0"/>
            </g>
        </g>
    </g>
</svg>
